<?xml version="1.0" encoding="UTF-8" standalone="no"?>
<!-- Created with Inkscape (http://www.inkscape.org/) -->

<svg
   xmlns:dc="http://purl.org/dc/elements/1.1/"
   xmlns:cc="http://creativecommons.org/ns#"
   xmlns:rdf="http://www.w3.org/1999/02/22-rdf-syntax-ns#"
   xmlns:svg="http://www.w3.org/2000/svg"
   xmlns="http://www.w3.org/2000/svg"
   xmlns:sodipodi="http://sodipodi.sourceforge.net/DTD/sodipodi-0.dtd"
   xmlns:inkscape="http://www.inkscape.org/namespaces/inkscape"
   inkscape:version="0.48.4 r9939"
   version="1.1"
   id="svg2"
   height="11.305834"
   width="67.639801"
   sodipodi:docname="pendulum-period.svg">
  <sodipodi:namedview
     id="base"
     pagecolor="#ffffff"
     bordercolor="#666666"
     borderopacity="1.0"
     inkscape:pageopacity="0.0"
     inkscape:pageshadow="2"
     inkscape:zoom="1.4129678"
     inkscape:cx="47.40265"
     inkscape:cy="20.011739"
     inkscape:document-units="px"
     inkscape:current-layer="svg2"
     showgrid="false"
     inkscape:window-width="1680"
     inkscape:window-height="1026"
     inkscape:window-x="1600"
     inkscape:window-y="24"
     inkscape:window-maximized="1"
     fit-margin-top="0"
     fit-margin-left="0"
     fit-margin-right="0"
     fit-margin-bottom="0" />
  <defs
     id="defs4" />
  <metadata
     id="metadata7">
    <rdf:RDF>
      <cc:Work
         rdf:about="">
        <dc:format>image/svg+xml</dc:format>
        <dc:type
           rdf:resource="http://purl.org/dc/dcmitype/StillImage" />
        <dc:title></dc:title>
      </cc:Work>
    </rdf:RDF>
  </metadata>
  <g
     id="layer1"
     inkscape:groupmode="layer"
     inkscape:label="Layer 1"
     transform="translate(-1042.2047,-409.59769)" />
  <g
     id="g3175"
     transform="translate(-207.50438,-114.03005)">
    <g
       word-spacing="normal"
       letter-spacing="normal"
       font-size-adjust="none"
       font-stretch="normal"
       font-weight="normal"
       font-variant="normal"
       font-style="normal"
       stroke-miterlimit="10.433"
       xml:space="preserve"
       transform="matrix(0.2269792,0,0,-0.2269792,-39.72136,201.14467)"
       id="content"
       style="font-style:normal;font-variant:normal;font-weight:normal;font-stretch:normal;letter-spacing:normal;word-spacing:normal;text-anchor:start;fill:none;stroke:#000000;stroke-linecap:butt;stroke-linejoin:miter;stroke-miterlimit:10.43299961;stroke-opacity:1;stroke-dasharray:none;stroke-dashoffset:0"><path
         id="path3178"
         d="m 1102.4,362.63 h 4.8 c 3.8,0 4.2,-0.8 4.2,-2.24 0,-0.35 0,-0.95 -0.4,-2.43 -0.1,-0.25 -0.1,-0.46 -0.1,-0.57 0,-0.39 0.3,-0.59 0.6,-0.59 0.5,0 0.5,0.16 0.7,1.05 l 2.8,10.81 c 0.1,0.55 0.1,0.66 0.1,0.8 0,0.09 -0.1,0.54 -0.6,0.54 -0.5,0 -0.5,-0.25 -0.7,-1.04 -1.1,-3.88 -2.2,-4.78 -6.5,-4.78 h -4.5 l 3.2,12.65 c 0.4,1.75 0.5,1.94 2.7,1.94 h 6.6 c 6.1,0 7.2,-1.64 7.2,-5.47 0,-1.16 0,-1.34 -0.1,-2.7 -0.1,-0.64 -0.1,-0.74 -0.1,-0.89 0,-0.25 0.1,-0.6 0.6,-0.6 0.5,0 0.6,0.3 0.7,1.25 l 1,8.61 c 0.1,1.35 -0.1,1.35 -1.4,1.35 h -24.4 c -1,0 -1.5,0 -1.5,-1 0,-0.55 0.5,-0.55 1.4,-0.55 1.9,0 3.3,0 3.3,-0.89 0,-0.2 0,-0.3 -0.3,-1.2 l -6.5,-26.35 c -0.5,-1.95 -0.7,-2.34 -4.6,-2.34 -0.8,0 -1.4,0 -1.4,-0.95 0,-0.6 0.6,-0.6 0.8,-0.6 1.4,0 5.1,0.16 6.5,0.16 1.7,0 5.8,-0.16 7.5,-0.16 0.4,0 1,0 1,0.95 0,0.4 -0.3,0.49 -0.3,0.55 -0.1,0.05 -0.2,0.05 -1.4,0.05 -1.1,0 -1.3,0 -2.6,0.09 -1.4,0.16 -1.6,0.36 -1.6,1 0,0.1 0,0.41 0.2,1.14 z"
         inkscape:connector-curvature="0"
         style="fill:#000000;stroke-width:0" /><path
         id="path3180"
         d="m 1125.9,341.6 0,-0.11 0,-0.1 0,-0.1 -0.1,-0.1 0,-0.08 0,-0.09 0,-0.08 -0.1,-0.07 0,-0.07 0,-0.07 -0.1,-0.06 0,-0.06 -0.1,-0.05 0,-0.05 -0.1,-0.05 -0.1,-0.04 -0.1,-0.04 0,-0.04 -0.1,-0.03 -0.1,-0.03 -0.1,-0.03 -0.1,-0.01 -0.1,-0.01 0,-0.01 -0.1,-0.01 -0.1,-0.01 0,-0.01 -0.1,-0.01 -0.1,0 -0.1,-0.01 -0.1,-0.01 0,0 -0.1,-0.01 -0.1,0 -0.1,-0.01 -0.1,0 -0.1,0 -0.1,-0.01 -0.1,0 -0.2,0 -0.1,0 -0.1,0 -0.1,0 c -0.7,0 -1.1,0 -1.1,-0.77 0,-0.48 0.4,-0.48 1.1,-0.48 h 12.4 l -0.6,1.25 h -4.8 c -1,0 -1.1,0.05 -1.1,0.36 0,0.03 0,0.2 0.2,0.72 l 4.8,19.03 c 0.2,1.08 0.3,1.19 1.7,1.19 h 4.5 c 3.9,0 7.2,-1.96 7.2,-6.69 0,-0.81 -0.4,-6.83 -3.9,-10.81 -1.3,-1.57 -4.3,-3.8 -8.6,-3.8 l 0.6,-1.25 c 7.8,0 15.2,7.11 15.2,14.7 0,5.1 -3.6,9.1 -9.2,9.1 h -12.7 c -0.7,0 -1.1,0 -1.1,-0.77 0,-0.48 0.4,-0.48 1.1,-0.48 0.6,0 0.7,0 1.3,-0.08 0.8,-0.06 0.8,-0.14 0.8,-0.49 0,-0.06 0,-0.23 -0.1,-0.76 z"
         inkscape:connector-curvature="0"
         style="fill:#000000;stroke-width:0" /><path
         id="path3182"
         d="m 1203.5,362.74 0.2,0 0.1,0 0.1,0 0.1,0.01 0.1,0 0.1,0.01 0,0.01 0.1,0.01 0.1,0.01 0,0.01 0.1,0.02 0.1,0.02 0,0.02 0.1,0.03 0.1,0.02 0,0.03 0.1,0.04 0,0.04 0.1,0.04 0,0.04 0,0.05 0.1,0.03 0,0.03 0,0.03 0,0.03 0,0.03 0,0.03 0,0.03 0.1,0.04 0,0.03 0,0.04 0,0.04 0,0.04 0,0.04 0,0.04 0,0.05 0,0.04 c 0,1 -1,1 -1.6,1 h -29.9 c -0.7,0 -1.6,0 -1.6,-1 0,-0.98 0.9,-0.98 1.7,-0.98 z"
         inkscape:connector-curvature="0"
         style="fill:#000000;stroke-width:0" /><path
         id="path3184"
         d="m 1203.6,353.07 0,0 0.1,0 0.1,0 0.2,0 0,0.01 0.1,0 0.1,0.01 0,0.01 0.1,0.01 0.1,0.01 0,0.01 0.1,0.02 0.1,0.02 0,0.02 0.1,0.03 0.1,0.02 0,0.04 0.1,0.03 0,0.04 0.1,0.04 0,0.05 0,0.02 0,0.03 0.1,0.02 0,0.03 0,0.03 0,0.03 0,0.03 0,0.04 0,0.03 0.1,0.04 0,0.03 0,0.04 0,0.04 0,0.04 0,0.04 0,0.05 0,0.04 0,0.05 c 0,1 -1,1 -1.7,1 h -29.7 c -0.8,0 -1.7,0 -1.7,-1 0,-1 0.9,-1 1.6,-1 z"
         inkscape:connector-curvature="0"
         style="fill:#000000;stroke-width:0" /><path
         id="path3186"
         d="m 1254.7,357.89 0.1,0.01 0.2,0 0.1,0 0.1,0.01 0.1,0 0.1,0.01 0,0.01 0.1,0.01 0.1,0.01 0.1,0.01 0,0.02 0.1,0.02 0.1,0.02 0,0.02 0.1,0.03 0,0.03 0.1,0.04 0,0.04 0.1,0.04 0,0.05 0.1,0.05 0,0.02 0,0.03 0,0.03 0,0.03 0,0.03 0.1,0.04 0,0.03 0,0.03 0,0.04 0,0.04 0,0.04 0,0.04 0,0.04 0,0.04 0,0.05 0,0.04 c 0,1 -0.9,1 -1.7,1 h -27 c -0.8,0 -1.7,0 -1.7,-1 0,-1 0.9,-1 1.7,-1 z"
         inkscape:connector-curvature="0"
         style="fill:#000000;stroke-width:0" /><path
         id="path3188"
         d="m 1268.5,350.33 0,-0.18 -0.1,-0.17 0,-0.16 -0.1,-0.15 0,-0.14 0,-0.14 -0.1,-0.13 0,-0.12 -0.1,-0.11 -0.1,-0.11 0,-0.1 -0.1,-0.09 -0.1,-0.08 -0.1,-0.08 -0.1,-0.08 -0.1,-0.06 -0.1,-0.06 -0.1,-0.06 -0.1,-0.05 -0.2,-0.05 -0.1,-0.04 -0.1,-0.01 -0.1,-0.02 -0.1,-0.02 -0.1,-0.01 -0.1,-0.02 -0.1,-0.01 -0.1,-0.01 -0.1,-0.01 -0.2,-0.01 -0.1,-0.01 -0.1,-0.01 -0.1,-0.01 -0.2,-0.01 -0.1,0 -0.2,-0.01 -0.1,0 -0.2,0 -0.1,-0.01 -0.2,0 -0.2,0 -0.1,0 -0.2,0 c -0.9,0 -1.4,0 -1.4,-0.95 0,-0.6 0.4,-0.6 1.4,-0.6 h 16.5 l -0.9,1.55 h -5.7 c -0.7,0 -0.7,0 -1.1,0.05 -0.4,0.04 -0.6,0.09 -0.6,0.5 0,0.14 0,0.25 0.2,1.14 l 6.9,27.36 c 0.4,1.73 0.5,1.89 2.7,1.89 h 5.3 c 4.9,0 9,-2.64 9,-9.22 0,-2.44 -1,-10.61 -5.2,-16.1 -1.5,-1.84 -5.4,-5.62 -11.5,-5.62 l 0.9,-1.55 c 10.3,0 20.2,10.52 20.2,21.42 0,7.03 -4.3,12.61 -11.8,12.61 h -16.7 c -1,0 -1.5,0 -1.5,-0.95 0,-0.59 0.5,-0.59 1.5,-0.59 0.6,0 1.5,-0.05 2.1,-0.1 0.8,-0.11 1.1,-0.25 1.1,-0.79 0,-0.21 -0.1,-0.36 -0.2,-0.96 z"
         inkscape:connector-curvature="0"
         style="fill:#000000;stroke-width:0" /><path
         id="path3190"
         d="m 1328.5,365.18 0.1,0.12 0,0.12 0.1,0.06 0,0.05 0,0.06 0.1,0.05 0,0.04 0.1,0.05 0,0.04 0.1,0.05 0,0.04 0.1,0.03 0.1,0.04 0.1,0.03 0.1,0.03 0.1,0.03 0.1,0.03 0.1,0.03 0.2,0.02 0,0.01 0.1,0.01 0.1,0.01 0.1,0.01 0,0.01 0.1,0.01 0.1,0.01 0.1,0 0.1,0.01 0.1,0.01 0.1,0 0.1,0.01 0.1,0 0.1,0.01 0.2,0 0.1,0 0.1,0.01 0.1,0 0.2,0 0.1,0 0.2,0 0.1,0 v 2.35 c -1.2,-0.11 -2.7,-0.16 -3.9,-0.16 -1.3,0 -3.5,0.11 -4.6,0.16 v -2.35 c 1,0 2.4,-0.15 2.4,-0.54 0,-0.05 0,-0.16 -0.2,-0.6 l -5.8,-12.47 -6.3,13.61 h 2.7 v 2.35 c -1.7,-0.11 -6.2,-0.16 -6.2,-0.16 -1.4,0 -3.6,0.11 -5.7,0.16 v -2.35 h 3.2 l 8.7,-18.73 c 0.6,-1.25 1.3,-1.25 1.9,-1.25 0.8,0 1.4,0.15 1.8,1.2 z"
         inkscape:connector-curvature="0"
         style="fill:#000000;stroke-width:0" /><path
         id="path3192"
         d="m 1342.3,382.02 0,0.17 0,0.16 0,0.16 0,0.08 0,0.08 0,0.08 0,0.08 0,0.07 0,0.07 -0.1,0.08 0,0.06 0,0.07 0,0.06 0,0.07 -0.1,0.05 0,0.06 0,0.05 -0.1,0.05 0,0.05 -0.1,0.04 0,0.04 0,0.02 -0.1,0.01 0,0.02 0,0.01 -0.1,0.02 0,0.01 0,0.01 -0.1,0.01 0,0.01 0,0.01 -0.1,0.01 0,0 -0.1,0.01 0,0 0,0 -0.1,0 c -1,0 -1,-0.89 -1,-1.78 v -46.23 c 0,-0.91 0,-1.8 1,-1.8 1,0 1,0.89 1,1.8 z"
         inkscape:connector-curvature="0"
         style="fill:#000000;stroke-width:0" /><path
         id="path3194"
         d="m 1373.4,365.18 0,0.12 0.1,0.12 0,0.06 0.1,0.05 0,0.06 0,0.05 0.1,0.04 0,0.05 0.1,0.04 0.1,0.05 0,0.04 0.1,0.03 0.1,0.04 0.1,0.03 0.1,0.03 0.1,0.03 0.1,0.03 0.1,0.03 0.1,0.02 0.1,0.01 0.1,0.01 0.1,0.01 0,0.01 0.1,0.01 0.1,0.01 0.1,0.01 0.1,0 0.1,0.01 0.1,0.01 0.1,0 0.1,0.01 0.1,0 0.1,0.01 0.1,0 0.2,0 0.1,0.01 0.1,0 0.2,0 0.1,0 0.1,0 0.2,0 v 2.35 c -1.3,-0.11 -2.7,-0.16 -4,-0.16 -1.2,0 -3.4,0.11 -4.5,0.16 v -2.35 c 1,0 2.4,-0.15 2.4,-0.54 0,-0.05 -0.1,-0.16 -0.2,-0.6 l -5.8,-12.47 -6.3,13.61 h 2.6 v 2.35 c -1.6,-0.11 -6.1,-0.16 -6.1,-0.16 -1.4,0 -3.7,0.11 -5.7,0.16 v -2.35 h 3.2 l 8.7,-18.73 c 0.6,-1.25 1.2,-1.25 1.9,-1.25 0.8,0 1.3,0.15 1.8,1.2 z"
         inkscape:connector-curvature="0"
         style="fill:#000000;stroke-width:0" /><path
         id="path3196"
         d="m 1387.2,382.02 0,0.17 0,0.16 0,0.16 0,0.08 0,0.08 0,0.08 0,0.08 -0.1,0.07 0,0.07 0,0.08 0,0.06 0,0.07 0,0.06 -0.1,0.07 0,0.05 0,0.06 -0.1,0.05 0,0.05 0,0.05 -0.1,0.04 0,0.04 -0.1,0.02 0,0.01 0,0.02 0,0.01 -0.1,0.02 0,0.01 0,0.01 -0.1,0.01 0,0.01 -0.1,0.01 0,0.01 0,0 -0.1,0.01 0,0 -0.1,0 0,0 c -1,0 -1,-0.89 -1,-1.78 v -46.23 c 0,-0.91 0,-1.8 1,-1.8 1,0 1,0.89 1,1.8 z"
         inkscape:connector-curvature="0"
         style="fill:#000000;stroke-width:0" /></g>  </g>
</svg>
