<?xml version="1.0" encoding="UTF-8" standalone="no"?>
<!-- Created with Inkscape (http://www.inkscape.org/) -->

<svg
   xmlns:dc="http://purl.org/dc/elements/1.1/"
   xmlns:cc="http://creativecommons.org/ns#"
   xmlns:rdf="http://www.w3.org/1999/02/22-rdf-syntax-ns#"
   xmlns:svg="http://www.w3.org/2000/svg"
   xmlns="http://www.w3.org/2000/svg"
   xmlns:sodipodi="http://sodipodi.sourceforge.net/DTD/sodipodi-0.dtd"
   xmlns:inkscape="http://www.inkscape.org/namespaces/inkscape"
   inkscape:version="0.48.4 r9939"
   version="1.1"
   id="svg2"
   height="158.88544"
   width="268.1929"
   sodipodi:docname="New document 1">
  <sodipodi:namedview
     id="base"
     pagecolor="#ffffff"
     bordercolor="#666666"
     borderopacity="1.0"
     inkscape:pageopacity="0.0"
     inkscape:pageshadow="2"
     inkscape:zoom="0.35"
     inkscape:cx="-623.8937"
     inkscape:cy="-8.5515527"
     inkscape:document-units="px"
     inkscape:current-layer="svg2"
     showgrid="false"
     inkscape:window-width="1680"
     inkscape:window-height="1026"
     inkscape:window-x="1600"
     inkscape:window-y="24"
     inkscape:window-maximized="1"
     fit-margin-top="0"
     fit-margin-left="0"
     fit-margin-right="0"
     fit-margin-bottom="0" />
  <defs
     id="defs4" />
  <metadata
     id="metadata7">
    <rdf:RDF>
      <cc:Work
         rdf:about="">
        <dc:format>image/svg+xml</dc:format>
        <dc:type
           rdf:resource="http://purl.org/dc/dcmitype/StillImage" />
        <dc:title></dc:title>
      </cc:Work>
    </rdf:RDF>
  </metadata>
  <g
     id="layer1"
     inkscape:groupmode="layer"
     inkscape:label="Layer 1"
     transform="translate(-998.8937,-364.9252)" />
  <g
     id="g3036"
     transform="translate(-998.8937,-364.9252)">
    <g
       word-spacing="normal"
       letter-spacing="normal"
       font-size-adjust="none"
       font-stretch="normal"
       font-weight="normal"
       font-variant="normal"
       font-style="normal"
       stroke-miterlimit="10.433"
       xml:space="preserve"
       transform="matrix(1.0629921,0,0,-1.0629921,-186.02362,789.27165)"
       id="content"
       style="font-style:normal;font-variant:normal;font-weight:normal;font-stretch:normal;letter-spacing:normal;word-spacing:normal;text-anchor:start;fill:none;stroke:#000000;stroke-linecap:butt;stroke-linejoin:miter;stroke-miterlimit:10.43299961;stroke-opacity:1;stroke-dasharray:none;stroke-dashoffset:0"><path
         id="path3039"
         d="m 1134.8,338.16 0,0.06 0,0.06 0,0.13 0.1,0.11 0,0.11 0,0.11 0,0.1 0.1,0.09 0,0.09 0,0.08 0.1,0.08 0,0.07 0,0.07 0,0.06 0.1,0.06 0,0.06 0,0.05 0.1,0.05 0,0.05 0,0.04 0.1,0.04 0,0.03 0,0.03 0.1,0.03 0,0.03 0.1,0.03 0,0.02 0,0.02 0.1,0.02 0,0.02 0.1,0.01 0,0.02 0.1,0.01 c 0.5,0.11 2.1,0.11 3.1,0.11 5.1,0 7.3,-0.2 7.3,-4.09 0,-0.74 -0.2,-2.69 -0.4,-3.99 0,-0.19 -0.1,-0.8 -0.1,-0.94 0,-0.29 0.1,-0.65 0.6,-0.65 0.5,0 0.6,0.4 0.7,1.15 l 1.3,8.66 c 0.1,0.2 0.2,0.7 0.2,0.86 0,0.55 -0.5,0.55 -1.4,0.55 h -27.6 c -1.2,0 -1.3,-0.07 -1.6,-1 l -3,-8.77 c -0.1,-0.11 -0.3,-0.8 -0.3,-0.91 0,-0.29 0.2,-0.54 0.6,-0.54 0.5,0 0.5,0.25 0.8,1.04 2.7,7.72 4,8.63 11.4,8.63 h 1.9 c 1.4,0 1.4,-0.2 1.4,-0.59 0,-0.32 -0.1,-0.91 -0.2,-1.05 l -6.7,-26.61 c -0.4,-1.84 -0.6,-2.39 -5.9,-2.39 -1.8,0 -2.1,0 -2.1,-0.95 0,-0.6 0.6,-0.6 0.9,-0.6 1.3,0 2.7,0.1 4.1,0.1 1.3,0 2.8,0.06 4.2,0.06 1.4,0 2.8,-0.06 4.1,-0.06 1.5,0 3,-0.1 4.4,-0.1 0.5,0 1.1,0 1.1,1 0,0.55 -0.4,0.55 -1.7,0.55 -1.3,0 -1.9,0 -3.2,0.09 -1.5,0.16 -1.9,0.3 -1.9,1.1 0,0.06 0,0.31 0.2,1.04 z"
         inkscape:connector-curvature="0"
         style="fill:#000000;stroke-width:0" /><path
         id="path3041"
         d="m 1197.6,324.22 0.2,0 0.1,0 0.2,0.01 0,0 0.1,0 0.1,0.01 0,0.01 0.1,0.01 0.1,0.01 0.1,0.01 0,0.02 0.1,0.02 0,0.02 0.1,0.03 0.1,0.02 0,0.03 0.1,0.04 0,0.04 0.1,0.04 0,0.04 0.1,0.05 0,0.03 0,0.03 0,0.03 0,0.03 0,0.03 0.1,0.03 0,0.03 0,0.04 0,0.03 0,0.04 0,0.04 0,0.04 0,0.04 0,0.04 0,0.05 0,0.04 c 0,1 -0.9,1 -1.6,1 h -29.9 c -0.7,0 -1.6,0 -1.6,-1 0,-0.98 0.9,-0.98 1.7,-0.98 z"
         inkscape:connector-curvature="0"
         style="fill:#000000;stroke-width:0" /><path
         id="path3043"
         d="m 1197.7,314.55 0,0 0.1,0 0.1,0 0.2,0 0.1,0.01 0,0 0.1,0.01 0.1,0.01 0,0.01 0.1,0.01 0.1,0.01 0,0.02 0.1,0.02 0.1,0.02 0,0.03 0.1,0.02 0,0.04 0.1,0.03 0,0.04 0.1,0.04 0,0.05 0,0.02 0.1,0.03 0,0.03 0,0.02 0,0.03 0,0.03 0,0.03 0.1,0.04 0,0.03 0,0.04 0,0.03 0,0.04 0,0.04 0,0.04 0,0.04 0,0.05 0,0.04 0,0.05 c 0,1 -0.9,1 -1.7,1 h -29.7 c -0.8,0 -1.7,0 -1.7,-1 0,-1 0.9,-1 1.6,-1 z"
         inkscape:connector-curvature="0"
         style="fill:#000000;stroke-width:0" /><path
         id="path3045"
         d="m 1222.3,311.77 5.3,5.12 c 7.7,6.88 10.7,9.56 10.7,14.55 0,5.68 -4.5,9.67 -10.5,9.67 -5.7,0 -9.4,-4.59 -9.4,-9.03 0,-2.78 2.5,-2.78 2.7,-2.78 0.8,0 2.6,0.59 2.6,2.64 0,1.29 -0.9,2.59 -2.7,2.59 -0.4,0 -0.5,0 -0.6,-0.05 1.1,3.24 3.8,5.08 6.7,5.08 4.5,0 6.7,-4.04 6.7,-8.12 0,-3.99 -2.5,-7.92 -5.2,-11.02 l -9.6,-10.65 c -0.6,-0.55 -0.6,-0.65 -0.6,-1.85 h 18.5 l 1.4,8.67 h -1.2 c -0.3,-1.5 -0.6,-3.68 -1.1,-4.43 -0.4,-0.39 -3.7,-0.39 -4.8,-0.39 z"
         inkscape:connector-curvature="0"
         style="fill:#000000;stroke-width:0" /><path
         id="path3047"
         d="m 1254.1,326.5 h 5.6 c -1.6,-7.38 -2.1,-9.52 -2.1,-12.84 0,-0.75 0,-2.1 0.5,-3.8 0.5,-2.19 1,-2.48 1.7,-2.48 1,0 2.1,0.89 2.1,1.89 0,0.29 0,0.4 -0.3,1.09 -1.5,3.59 -1.5,6.83 -1.5,8.22 0,2.64 0.4,5.34 0.9,7.92 h 5.7 c 0.7,0 2.5,0 2.5,1.7 0,1.19 -1.1,1.19 -2,1.19 h -16.7 c -1.1,0 -3,0 -5.2,-2.34 -1.7,-1.94 -3.1,-4.24 -3.1,-4.49 0,-0.04 0,-0.48 0.6,-0.48 0.4,0 0.5,0.19 0.8,0.59 2.5,3.83 5.4,3.83 6.4,3.83 h 2.8 c -1.6,-6.02 -4.3,-12.05 -6.4,-16.58 -0.4,-0.75 -0.4,-0.86 -0.4,-1.2 0,-0.95 0.8,-1.34 1.5,-1.34 1.5,0 1.9,1.39 2.5,3.23 0.7,2.3 0.7,2.39 1.3,4.89 z"
         inkscape:connector-curvature="0"
         style="fill:#000000;stroke-width:0" /><path
         id="path3049"
         d="m 1283.6,324.46 -6.6,-12.95 c -0.3,-0.5 -0.3,-0.61 -0.3,-0.65 0,-0.21 0.6,-0.75 0.7,-0.8 l 3.4,6.58 11.5,-66.91 c 1.5,0 1.8,0 2.1,1.3 L 1322,398.2 c 0,0.55 -0.4,1 -1,1 -0.8,0 -1,-0.66 -1.1,-1.5 l -25.5,-135.77 h -0.1 z"
         inkscape:connector-curvature="0"
         style="fill:#000000;stroke-width:0" /><polyline
         id="polyline3051"
         points="1321,397 1367,397 1367,399.04 1321,399.04 "
         style="fill:#000000;fill-rule:nonzero;stroke-width:0" /><path
         id="path3053"
         d="m 1345.5,371.66 0,0.16 0.1,0.16 0,0.15 0,0.15 0.1,0.13 0,0.13 0.1,0.13 0,0.11 0.1,0.12 0.1,0.1 0,0.1 0.1,0.09 0.1,0.09 0.1,0.08 0.1,0.08 0.1,0.07 0.2,0.06 0.1,0.06 0.2,0.06 0.1,0.05 0.1,0.02 0.1,0.02 0.1,0.02 0.1,0.02 0.2,0.02 0.1,0.02 0.1,0.02 0.1,0.01 0.1,0.01 0.2,0.02 0.1,0.01 0.2,0.01 0.1,0.01 0.2,0.01 0.1,0.01 0.2,0.01 0.2,0 0.2,0.01 0.1,0 0.2,0.01 0.2,0 0.2,0 0.2,0 0.3,0 c 1.4,0 1.9,0 1.9,0.96 0,0.59 -0.6,0.59 -0.8,0.59 -1.7,0 -5.8,-0.16 -7.4,-0.16 -1.5,0 -5.2,0.16 -6.6,0.16 -0.4,0 -1,0 -1,-1 0,-0.55 0.5,-0.55 1.4,-0.55 0.1,0 1,0 1.9,-0.09 0.9,-0.11 1.3,-0.16 1.3,-0.8 0,-0.2 0,-0.36 -0.2,-0.95 l -6.6,-26.75 c -0.5,-1.95 -0.6,-2.34 -4.6,-2.34 -0.8,0 -1.3,0 -1.3,-1 0,-0.55 0.4,-0.55 1.3,-0.55 h 23.1 c 1.2,0 1.2,0 1.6,0.84 l 3.9,10.77 c 0.2,0.55 0.2,0.64 0.2,0.7 0,0.19 -0.2,0.55 -0.6,0.55 -0.5,0 -0.5,-0.25 -0.9,-1.05 -1.7,-4.59 -3.9,-10.26 -12.5,-10.26 h -4.7 c -0.7,0 -0.8,0 -1,0.04 -0.5,0.05 -0.7,0.1 -0.7,0.5 0,0.14 0,0.25 0.3,1.14 z"
         inkscape:connector-curvature="0"
         style="fill:#000000;stroke-width:0" /><polyline
         id="polyline3055"
         points="1327,319 1361,319 1361,321.04 1327,321.04 "
         style="fill:#000000;fill-rule:nonzero;stroke-width:0" /><path
         id="path3057"
         d="m 1354.5,292.5 0,0.06 0,0.05 0,0.05 0,0.06 0.1,0.1 0,0.05 0,0.06 0,0.05 0,0.06 0,0.05 0,0.06 0,0.06 0,0.06 0,0.03 0,0.03 0,0.03 0.1,0.03 c 0,0.86 -0.6,1.36 -1.5,1.36 -0.5,0 -1.8,-0.36 -2,-2.16 -0.9,1.85 -2.7,3.14 -4.7,3.14 l 0.1,-1.09 c 3.3,0 4,-4.03 4,-4.28 0,-0.25 -0.1,-0.55 -0.2,-0.75 l -2.4,-9.52 c -0.3,-1.29 -1.4,-2.53 -2.5,-3.48 -1.1,-0.89 -2.6,-1.8 -4.1,-1.8 -2.4,0 -3.2,2.6 -3.2,4.58 0,2.41 1.5,8.28 2.8,10.81 1.3,2.46 3.5,4.44 5.6,4.44 l -0.1,1.09 c -5.7,0 -11.8,-6.96 -11.8,-14.14 0,-4.93 3,-7.87 6.6,-7.87 2.9,0 5.3,2.34 5.8,2.89 l 0,-0.05 c -1,-4.44 -1.6,-6.48 -1.6,-6.58 -0.2,-0.45 -1.9,-5.39 -7.2,-5.39 -0.9,0 -2.6,0.07 -4,0.5 1.5,0.46 2.1,1.75 2.1,2.6 0,0.79 -0.6,1.75 -1.9,1.75 -1.1,0 -2.7,-0.91 -2.7,-2.89 0,-2.05 1.8,-3.05 6.6,-3.05 6.2,0 9.8,3.89 10.6,6.88 z"
         inkscape:connector-curvature="0"
         style="fill:#000000;stroke-width:0" /></g>  </g>
</svg>
